# xmcd CD database file
#
# Track frame offsets:
#	187
#	6142
#	62787
#	101130
#	137640
#	172922
#
# Disc length: 2798 seconds
#
# Revision: 1
# Processed by: cddbd v1.5.1PL2 Copyright (c) Steve Scherf et al.
# Submitted via: CDex 1.50
#
DISCID=480aec06
DTITLE=Johnny Griffin - Johnny Griffin's Studio Jazz Party
DYEAR=1960
DGENRE=Jazz
TTITLE0=Party Time
TTITLE1=Good Bait
TTITLE2=There Will Never be Another You
TTITLE3=Toe-Tappin'
TTITLE4=You've Changed
TTITLE5=Low Gravy
EXTD=YEAR: 1960
EXTT0=
EXTT1=
EXTT2=
EXTT3=
EXTT4=
EXTT5=
PLAYORDER=
